<svg xmlns="http://www.w3.org/2000/svg" width="23.458" height="29.058" viewBox="0 0 23.458 29.058"><defs><style>.a{opacity:0.35;}.b{stroke:#000;}</style></defs><g class="a" transform="translate(-48.3 0.5)"><path class="b" d="M71.252,24.254,69.645,6.162a.773.773,0,0,0-.769-.706h-3.3a5.543,5.543,0,0,0-11.085,0h-3.3a.769.769,0,0,0-.769.706L48.806,24.254c0,.023-.006.046-.006.069a4,4,0,0,0,4.212,3.735H67.046a4,4,0,0,0,4.212-3.735A.279.279,0,0,0,71.252,24.254ZM60.029,1.549a4,4,0,0,1,3.994,3.907H56.035A4,4,0,0,1,60.029,1.549Zm7.017,24.959H53.012a2.472,2.472,0,0,1-2.662-2.152L51.887,7.012H54.48V9.364a.775.775,0,1,0,1.549,0V7.012h7.993V9.364a.775.775,0,1,0,1.549,0V7.012h2.593l1.543,17.345A2.476,2.476,0,0,1,67.046,26.509Z"/></g></svg>